<?xml version="1.0"?>
<svg width="512" height="512" xmlns="http://www.w3.org/2000/svg" xmlns:svg="http://www.w3.org/2000/svg">
 <!-- Created with SVG-edit - https://github.com/SVG-Edit/svgedit-->
 <g class="layer">
  <title>Layer 1</title>
  <path d="m84.23,137.59l2.96,-0.05c5.74,-0.01 10.36,0.15 15.29,3.36c2.67,3.13 4.85,6.49 7,10l1.46,2.36a430.05,430.05 0 0 1 4.29,7.26l3.39,5.79l1.85,3.17a4497,4497 0 0 0 11.51,19.48l1.24,2.09a1583.18,1583.18 0 0 0 18.44,30.3c4.02,6.47 7.93,13 11.82,19.55a87.2,87.2 0 0 0 7.51,-10.59l2.02,-3.33l2.16,-3.58l2.26,-3.74c5.71,-9.46 11.3,-18.98 16.87,-28.53a1039.81,1039.81 0 0 1 17.38,-28.73a306.41,306.41 0 0 0 5.13,-8.46c3.9,-6.65 7.55,-12.48 14.67,-16.04c3.58,-0.27 7.16,-0.23 10.75,-0.25c1.49,-0.03 1.49,-0.03 3,-0.06c6.48,-0.04 11.05,0.54 16.13,4.94c1.99,4.21 1.94,9.04 0.39,13.44c-1.07,2.1 -2.23,4.11 -3.46,6.12l-1.36,2.33a789.6,789.6 0 0 1 -4.45,7.48c-0.99,1.68 -1.98,3.36 -2.96,5.04c-2.13,3.62 -4.27,7.24 -6.42,10.85c-3.7,6.23 -7.36,12.48 -11.02,18.74c-5.86,10 -11.73,19.99 -17.63,29.96a3114.11,3114.11 0 0 0 -9.31,15.83l-2.28,3.9a5102.06,5102.06 0 0 0 -4.38,7.52l-2.06,3.51a584.86,584.86 0 0 0 -2.75,4.76c-1.19,1.89 -1.19,1.89 -2.97,4.11c-6.03,8 -6.17,14.94 -5.99,24.57c0.04,2.62 0.05,5.24 0.04,7.86c0,4.62 0.03,9.23 0.08,13.84c0.07,7.4 0.11,14.8 0.1,22.19c0.01,2.58 0.05,5.15 0.09,7.72c0,1.59 0.01,3.17 0.01,4.75l0.06,2.15c-0.03,3.8 -0.64,6.2 -2.96,9.13c-5.18,5.02 -11.7,3.83 -18.53,3.88l-3.59,0.09l-3.46,0.03l-3.16,0.04c-3.71,-0.6 -5.29,-1.81 -7.91,-4.47c-2.17,-4.17 -2.19,-7.62 -2.05,-12.27c0.04,-1.48 0.07,-2.96 0.11,-4.45l0.06,-2.37c0.11,-4.22 0.14,-8.44 0.18,-12.66c0.05,-5.34 0.12,-10.68 0.3,-16.01c0.77,-24.54 -1.85,-41.08 -16.43,-61.17c-3.54,-5 -6.58,-10.29 -9.67,-15.57c-1.23,-2.04 -2.45,-4.08 -3.68,-6.11c-6.02,-10.03 -11.9,-20.14 -17.8,-30.24a4079.92,4079.92 0 0 0 -9.77,-16.59l-1.56,-2.63c-2.76,-4.67 -5.53,-9.34 -8.31,-14l-1.81,-3.04a2094.94,2094.94 0 0 0 -3.44,-5.75l-1.55,-2.61l-1.37,-2.29c-2.7,-4.99 -4.36,-9.57 -3.21,-15.24c5.68,-7.06 10.27,-7.34 18.75,-7.31z" fill="#0155AA" id="svg_4"/>
  <path d="m311.36,137.53l3.26,-0.08c6.07,-0.02 10.22,0.08 14.86,4.45c3.12,4.13 3.42,7.68 3.36,12.7l0.01,2.33c0,2.57 -0.01,5.13 -0.03,7.7l0,5.53c0,5 -0.02,10.01 -0.04,15.01c-0.01,5.22 -0.02,10.45 -0.02,15.68c-0.01,9.9 -0.03,19.8 -0.06,29.7c-0.04,11.27 -0.05,22.54 -0.07,33.8a45445.47,45445.47 0 0 1 -0.15,69.55l3.91,-0.03c12.15,-0.08 24.31,-0.14 36.46,-0.18c6.25,-0.02 12.5,-0.05 18.74,-0.09c6.03,-0.05 12.06,-0.07 18.09,-0.08c2.3,-0.01 4.6,-0.02 6.9,-0.04c3.23,-0.03 6.45,-0.04 9.67,-0.03l2.88,-0.05c6.91,0.05 9.95,1.57 15.16,6.06c3.16,3.83 2.45,9.07 2.5,13.75l0.09,2.56c0.06,5.56 -0.63,8.76 -4.4,13.13c-3.25,2.99 -5.43,3.38 -9.8,3.39l-3.59,0.04l-3.93,-0.01a1749.4,1749.4 0 0 1 -15.39,0.05c-3.13,0 -6.27,0.01 -9.4,0.02c-7.38,0.01 -14.77,0.02 -22.16,0.01c-7.62,-0.01 -15.24,0.02 -22.86,0.05c-6.54,0.03 -13.08,0.05 -19.63,0.04c-3.91,0 -7.81,0.01 -11.72,0.03c-3.68,0.02 -7.35,0.02 -11.02,0c-2,0 -3.99,0.01 -5.98,0.04c-8.72,-0.09 -8.72,-0.09 -12.74,-2.95l-1.78,-2.71l-1.09,-1.63c-1.38,-3.61 -1.19,-7.23 -1.18,-11.05l-0.02,-2.68c-0.02,-2.97 -0.02,-5.95 -0.02,-8.92a5948.76,5948.76 0 0 1 -0.06,-23.75c0,-3.61 -0.01,-7.22 -0.01,-10.84c-0.03,-12.6 -0.04,-25.21 -0.05,-37.81a10846.16,10846.16 0 0 0 -0.07,-35.27c-0.04,-10.09 -0.05,-20.18 -0.05,-30.27c0,-6.03 -0.01,-12.05 -0.04,-18.08c-0.03,-5.67 -0.03,-11.34 -0.01,-17c0,-2.09 -0.01,-4.17 -0.02,-6.25c-0.02,-2.84 -0.01,-5.68 0.01,-8.52l-0.04,-2.49c0.08,-5.83 1.48,-8.36 5.65,-12.44c4.67,-3.21 10.42,-2.37 15.88,-2.37z" fill="#0256AA" id="svg_3"/>
 </g>
</svg>