<svg xmlns="http://www.w3.org/2000/svg" width="512" height="512" viewBox="0 0 512 512" version="1.1"><path d="M 6.256 95.975 C 0.202 97.412, 0 97.946, -0 112.533 L -0 125.821 50.991 212.161 L 101.982 298.500 101.991 351.282 C 102.001 409.846, 101.859 408.500, 108.562 413.618 C 112.327 416.492, 112.383 416.501, 128.919 416.793 C 144.542 417.069, 145.760 416.954, 150 414.793 C 153.284 413.120, 155.108 411.295, 156.750 408.038 C 158.998 403.579, 159 403.541, 159 350.836 L 159 298.096 212.168 207.798 C 262.247 122.745, 265.360 117.181, 265.756 112 C 266.105 107.447, 265.774 105.907, 263.835 103.054 C 259.262 96.325, 256.493 95.500, 238.500 95.502 C 220.766 95.505, 218.816 96.026, 213.398 102.202 C 211.804 104.019, 192.579 135.317, 170.676 171.753 C 148.772 208.189, 130.547 237.996, 130.176 237.991 C 129.804 237.985, 111.066 207.344, 88.536 169.899 C 66.005 132.454, 46.331 100.773, 44.815 99.498 C 43.299 98.222, 39.773 96.688, 36.980 96.089 C 31.283 94.867, 11.235 94.793, 6.256 95.975 M 317.500 95.869 C 311.159 97.525, 307.050 101.191, 305.139 106.899 C 304.308 109.379, 304 149.941, 304 256.937 L 304 403.576 306.250 408.034 C 307.733 410.971, 309.864 413.255, 312.500 414.729 L 316.500 416.967 410.230 416.984 C 494.227 416.998, 504.379 416.832, 507.998 415.384 L 512.037 413.768 511.768 391.134 L 511.500 368.500 508 366.752 C 504.766 365.136, 499.056 365.003, 432.750 365.002 L 361 365 361 236.401 C 361 92.440, 361.575 103.394, 353.741 98.210 C 349.996 95.732, 349.050 95.586, 335.148 95.342 C 327.092 95.201, 319.150 95.438, 317.500 95.869" stroke="none" fill="#0454ac" fill-rule="evenodd"/><path d="M 37.105 1.583 C 20.397 6.075, 4.970 22.165, 1.043 39.192 C 0.496 41.561, 0.038 55.998, 0.024 71.273 L 0 99.046 2.657 97.305 C 4.727 95.949, 8.110 95.477, 17.959 95.170 C 32.458 94.718, 40.710 96.044, 44.796 99.481 C 46.322 100.766, 66.005 132.454, 88.536 169.899 C 111.066 207.344, 129.804 237.985, 130.176 237.991 C 130.547 237.996, 148.772 208.189, 170.676 171.753 C 192.579 135.317, 211.804 104.019, 213.398 102.202 C 218.816 96.026, 220.766 95.505, 238.500 95.502 C 256.493 95.500, 259.262 96.325, 263.835 103.054 C 265.774 105.907, 266.105 107.447, 265.756 112 C 265.360 117.181, 262.247 122.745, 212.168 207.798 L 159 298.096 159 350.836 C 159 403.541, 158.998 403.579, 156.750 408.038 C 155.108 411.295, 153.284 413.120, 150 414.793 C 145.760 416.954, 144.542 417.069, 128.919 416.793 C 112.383 416.501, 112.327 416.492, 108.562 413.618 C 101.859 408.501, 102.001 409.846, 101.990 351.282 L 101.980 298.500 51.240 212.574 L 0.500 126.648 0.239 297.074 C 0.058 415.716, 0.305 469.086, 1.054 472.719 C 4.627 490.065, 21.364 506.845, 39.192 510.957 C 41.972 511.599, 118.896 511.960, 256.040 511.976 C 488.730 512.002, 473.873 512.374, 485.425 506.239 C 496.260 500.486, 508.621 484.557, 510.676 473.699 C 511.009 471.939, 511.683 469.986, 512.174 469.357 C 513.274 467.949, 513.125 40.805, 512.025 41.485 C 511.598 41.748, 510.978 40.262, 510.645 38.182 C 508.187 22.811, 490.065 5.023, 472.808 1.043 C 470.023 0.400, 393.189 0.064, 255.500 0.090 C 72.608 0.126, 41.737 0.337, 37.105 1.583 M 0.441 70.500 C 0.442 86.450, 0.580 92.835, 0.748 84.689 C 0.916 76.543, 0.916 63.493, 0.747 55.689 C 0.579 47.885, 0.441 54.550, 0.441 70.500 M 317.500 95.869 C 311.159 97.525, 307.050 101.191, 305.139 106.899 C 304.308 109.379, 304 149.941, 304 256.937 L 304 403.576 306.250 408.034 C 307.733 410.971, 309.864 413.255, 312.500 414.729 L 316.500 416.967 410.282 416.984 C 491.408 416.998, 504.549 416.798, 507.654 415.500 C 509.629 414.675, 511.407 414, 511.606 414 C 511.805 414, 512.095 426.488, 512.251 441.750 C 512.406 457.012, 512.527 392.100, 512.520 297.500 C 512.513 194.678, 512.404 174.423, 512.250 247.140 L 511.992 368.780 508.285 366.890 C 504.751 365.089, 501.212 365, 432.789 365 L 361 365 361 236.401 C 361 92.440, 361.575 103.394, 353.741 98.210 C 349.996 95.732, 349.050 95.586, 335.148 95.342 C 327.092 95.201, 319.150 95.438, 317.500 95.869" stroke="none" fill="#fbfbfb" fill-rule="evenodd"/></svg>